<svg width="192" height="68" viewBox="0 0 327 116" fill="none" xmlns="http://www.w3.org/2000/svg"><g clip-path="url(#clip0)"><rect x="2.33203" y="1.55103" width="323.522" height="112.388"></rect><path d="M130.166 54.377L133.823 42.3128H133.854L137.511 54.377H141.605L148.289 35.2008H143.758L139.583 47.8577H139.502L135.723 35.2008H131.994L128.256 47.8175H128.175L124 35.2008H119.469L126.143 54.377H130.166Z" fill="#1B1B19"></path><path d="M158.742 54.6883C164.705 54.6883 168.921 50.6401 168.921 44.824C168.921 38.9275 164.705 34.9194 158.742 34.9194C152.626 34.9194 148.563 39.1685 148.563 44.824C148.563 50.4493 152.616 54.6883 158.742 54.6883ZM158.742 38.8973C161.922 38.8973 164.39 41.2981 164.39 44.834C164.39 48.2895 161.891 50.6903 158.742 50.6903C155.4 50.6903 153.094 48.0987 153.094 44.834C153.094 41.489 155.359 38.8973 158.742 38.8973Z" fill="#1B1B19"></path><path d="M176.865 45.2961C176.865 42.152 178.775 39.7512 182.147 39.7512C182.462 39.7512 182.98 39.7913 183.498 39.8315V34.9194H182.94C180.593 34.9194 178.409 36.0545 176.895 38.1038H176.855V35.2007H172.405V54.3769H176.855V45.2961H176.865Z" fill="#1B1B19"></path><path d="M190.498 49.8567L193.718 46.3208H193.789L198.838 54.3771H203.846L196.735 42.9457L203.725 35.2008H198.442L190.498 43.9602V25.457H186.038V54.3771H190.498V49.8567Z" fill="#1B1B19"></path><path d="M212.35 50.841C209.963 50.841 208.297 50.0977 206.742 48.6009L204.517 51.9058C206.549 53.6737 209.211 54.6983 212.35 54.6983C217.277 54.6983 219.583 52.1067 219.583 48.8822C219.583 45.0751 217.003 44.3217 212.868 42.7144C210.999 42.0113 209.81 41.3383 209.81 40.394C209.81 39.2187 211.039 38.7466 211.913 38.7466C213.427 38.7466 215.215 39.3393 216.759 40.7858L218.983 37.3302C216.84 35.6025 214.615 34.9294 212.147 34.9294C208.175 34.9294 205.31 37.2097 205.31 40.3538C205.31 44.1308 208.053 45.5371 211.232 46.6421C213.772 47.506 215.052 47.9781 215.052 48.9625C215.052 50.0977 214.067 50.841 212.35 50.841Z" fill="#1B1B19"></path><path d="M241.048 54.377L244.705 42.3128H244.746L248.403 54.377H252.497L259.171 35.2008H254.64L250.465 47.8577H250.394L246.615 35.2008H242.876L239.138 47.8175H239.067L234.892 35.2008H230.361L237.035 54.377H241.048Z" fill="#1B1B19"></path><path d="M266.526 35.2008H262.076V54.377H266.526V35.2008Z" fill="#1B1B19"></path><path d="M264.301 32.368C265.967 32.368 267.318 31.032 267.318 29.4248C267.318 27.8577 265.967 26.5217 264.301 26.5217C262.635 26.5217 261.325 27.8577 261.325 29.4248C261.314 31.032 262.635 32.368 264.301 32.368Z" fill="#1B1B19"></path><path d="M271.656 48.3297C271.656 52.609 273.728 54.6984 277.06 54.6984C279.6 54.6984 280.839 54.1861 281.987 53.5633L280.839 49.7562C279.803 50.3086 278.737 50.5799 277.975 50.5799C276.705 50.5799 276.105 49.8767 276.105 47.9079V38.9476H281.784V35.2108H276.105V28.37L271.656 28.8421V35.2108H269.269V38.9476H271.656V48.3297Z" fill="#1B1B19"></path><path d="M289.099 44.6333C289.099 40.8563 291.09 38.8975 294.31 38.8975C296.972 38.8975 298.526 40.2335 298.526 44.0506V54.3871H302.975V42.9055C302.975 37.1697 299.999 34.9296 295.742 34.9296C293.121 34.9296 290.775 35.8337 289.139 37.6418H289.099V25.457H284.649V54.3771H289.099V44.6333Z" fill="#1B1B19"></path><path d="M126.824 60.665H122.019V88.5705H139.898V84.3214H126.824V60.665Z" fill="#1B1B19"></path><path d="M151.945 69.1133C145.83 69.1133 141.766 73.3624 141.766 79.0178C141.766 84.6331 145.82 88.8822 151.945 88.8822C157.909 88.8822 162.124 84.834 162.124 79.0178C162.114 73.1213 157.898 69.1133 151.945 69.1133ZM151.945 84.8741C148.603 84.8741 146.297 82.2825 146.297 79.0178C146.297 75.6728 148.563 73.0811 151.945 73.0811C155.125 73.0811 157.594 75.4819 157.594 79.0178C157.584 82.4733 155.084 84.8741 151.945 84.8741Z" fill="#1B1B19"></path><path d="M162.195 69.3944L168.991 78.7866L162.154 88.5706H167.081L171.531 82.5134H171.572L175.991 88.5706H180.958L174.081 78.8168L180.836 69.3944H175.706L171.531 75.4416H171.5L167.366 69.3944H162.195Z" fill="#1B1B19"></path><path d="M191.127 88.8822C197.09 88.8822 201.306 84.834 201.306 79.0178C201.306 73.1213 197.09 69.1133 191.127 69.1133C185.002 69.1133 180.948 73.3624 180.948 79.0178C180.958 84.6431 185.012 88.8822 191.127 88.8822ZM191.127 73.0811C194.307 73.0811 196.775 75.4819 196.775 79.0178C196.775 82.4733 194.276 84.8741 191.127 84.8741C187.785 84.8741 185.479 82.2825 185.479 79.0178C185.489 75.6828 187.755 73.0811 191.127 73.0811Z" fill="#1B1B19"></path><path d="M209.292 72.0666H209.251V69.3945H204.802V88.5707H209.251V78.9475C209.251 75.1705 211.242 73.0912 214.259 73.0912C216.921 73.0912 218.475 74.387 218.475 78.4352V88.5707H222.925V77.29C222.925 71.5141 220.06 69.1133 215.814 69.1133C213.304 69.1133 210.927 70.1379 209.292 72.0666Z" fill="#1B1B19"></path><path d="M235.958 88.8821C239.777 88.8821 242.52 87.3452 244.146 85.2659L241.047 82.634C240.052 83.8495 238.467 84.8741 236.201 84.8741C233.337 84.8741 231.274 83.2267 230.675 80.5145H244.826C244.867 80.1629 244.948 79.4497 244.948 78.7466C244.948 73.1715 241.25 69.1233 235.531 69.1233C230.127 69.1233 226.073 73.0911 226.073 78.9876C226.063 84.9545 230.32 88.8821 235.958 88.8821ZM235.765 73.0811C238.304 73.0811 239.899 74.6582 240.458 76.9686H230.756C231.386 74.4573 233.296 73.0811 235.765 73.0811Z" fill="#1B1B19"></path><path d="M0.947266 0.112915V115.19H327V0.112915H0.947266ZM325.08 113.292H2.86725V2.01145H325.08V113.292Z" fill="#1B1B19"></path><path fill-rule="evenodd" clip-rule="evenodd" d="M62.7529 24.0002H25.8972V80.1126L62.7529 24.0002ZM93.9604 36.5868V91.3029H58.0291L93.9589 91.3029V36.5891L93.9604 36.5868Z" fill="#69C350"></path><path d="M58.0298 91.3028L93.961 36.5868V91.3028H58.0298Z" fill="#69C350" fill-opacity="0.4"></path><path fill-rule="evenodd" clip-rule="evenodd" d="M62.7529 24.0002L25.8972 80.1126V91.3029H58.0291L93.9604 36.5868V24.0002H62.7529Z" fill="#69C350" fill-opacity="0.7"></path></g><defs><clipPath id="clip0"><rect width="326.053" height="115.077" fill="white" transform="translate(0.947266 0.112915)"></rect></clipPath></defs></svg>